<svg width="30" height="30" viewBox="0 0 30 30" fill="none" xmlns="http://www.w3.org/2000/svg">
<path d="M1.78426 2.48362C1.49333 3.02386 1.35027 3.69316 1.06416 5.02876L0.102959 9.51578C-0.0332672 10.1276 -0.0343223 10.7589 0.0998579 11.3711C0.234038 11.9832 0.50063 12.5634 0.883314 13.0761C1.266 13.5887 1.75672 14.023 2.32544 14.3525C2.89416 14.6819 3.52892 14.8995 4.19084 14.992C4.85277 15.0844 5.52794 15.0498 6.17502 14.8901C6.82211 14.7305 7.42749 14.4493 7.95411 14.0636C8.48073 13.678 8.9175 13.196 9.23769 12.6473C9.55788 12.0986 9.75475 11.4946 9.81625 10.8724L9.92877 9.83693C9.86785 10.4955 9.95475 11.1587 10.1839 11.7841C10.4131 12.4095 10.7794 12.9834 11.2596 13.4692C11.7398 13.9549 12.3232 14.3418 12.9726 14.6051C13.622 14.8684 14.3231 15.0024 15.0311 14.9984C15.7391 14.9944 16.4384 14.8526 17.0843 14.582C17.7303 14.3114 18.3087 13.918 18.7826 13.4269C19.2564 12.9357 19.6154 12.3577 19.8364 11.7298C20.0575 11.1018 20.1358 10.4377 20.0664 9.7799L20.1837 10.8724C20.2452 11.4946 20.4421 12.0986 20.7623 12.6473C21.0825 13.196 21.5193 13.678 22.0459 14.0636C22.5725 14.4493 23.1779 14.7305 23.825 14.8901C24.4721 15.0498 25.1472 15.0844 25.8092 14.992C26.4711 14.8995 27.1058 14.6819 27.6746 14.3525C28.2433 14.023 28.734 13.5887 29.1167 13.0761C29.4994 12.5634 29.766 11.9832 29.9001 11.3711C30.0343 10.7589 30.0333 10.1276 29.897 9.51578L28.9358 5.02876C28.6497 3.69316 28.5067 3.02536 28.2157 2.48362C27.9126 1.91942 27.4858 1.42104 26.963 1.02084C26.4401 0.620626 25.833 0.327531 25.181 0.160572C24.5542 1.67714e-07 23.8244 0 22.3649 0H7.63506C6.17558 0 5.44583 1.67714e-07 4.81896 0.160572C4.16696 0.327531 3.55985 0.620626 3.03704 1.02084C2.51423 1.42104 2.0874 1.91942 1.78426 2.48362ZM25.0766 17.2578C26.3324 17.2607 27.5678 16.9604 28.6626 16.3859V18.0081C28.6626 23.6672 28.6626 26.4974 26.7788 28.2547C25.263 29.6714 23.0047 29.946 19.0184 30V24.7611C19.0184 23.358 19.0184 22.6572 18.6953 22.135C18.4837 21.7928 18.1794 21.5086 17.8129 21.3111C17.2535 21.0095 16.5029 21.0095 15 21.0095C13.4971 21.0095 12.7465 21.0095 12.1871 21.3111C11.8206 21.5086 11.5163 21.7928 11.3047 22.135C10.9816 22.6572 10.9816 23.358 10.9816 24.7611V30C6.99533 29.946 4.73699 29.6699 3.22124 28.2547C1.33741 26.4974 1.33741 23.6672 1.33741 18.0081V16.3859C2.43269 16.9606 3.66863 17.261 4.92505 17.2578C6.78258 17.2589 8.57096 16.6 9.92716 15.4149C11.309 16.604 13.1208 17.2621 15 17.2578C16.8792 17.2621 18.691 16.604 20.0728 15.4149C21.429 16.6 23.219 17.2589 25.0766 17.2578Z" fill="#0276FF"/>
</svg>
