<svg width="29" height="23" viewBox="0 0 29 23" fill="none" xmlns="http://www.w3.org/2000/svg">
<path d="M24.5377 1.91144C22.7009 1.02042 20.7123 0.373718 18.6408 6.61051e-05C18.6227 -0.000538354 18.6046 0.00300859 18.5879 0.0104576C18.5712 0.0179066 18.5563 0.0290768 18.5442 0.0431801C18.2956 0.517431 18.0056 1.13539 17.8122 1.60964C15.6151 1.26474 13.3806 1.26474 11.1835 1.60964C10.9901 1.12102 10.7001 0.517431 10.4378 0.0431801C10.4239 0.0144376 10.3825 6.61051e-05 10.3411 6.61051e-05C8.2696 0.373718 6.29478 1.02042 4.44425 1.91144C4.43044 1.91144 4.41663 1.92581 4.40282 1.94018C0.64653 7.78928 -0.389213 13.4803 0.121754 19.1138C0.121754 19.1426 0.135564 19.1713 0.163183 19.1857C2.64897 21.0827 5.03808 22.2324 7.39957 22.994C7.441 23.0084 7.48243 22.994 7.49624 22.9653C8.04864 22.1749 8.54579 21.3414 8.9739 20.4647C9.00152 20.4072 8.9739 20.3497 8.91866 20.3354C8.1315 20.0192 7.38576 19.6456 6.65384 19.2144C6.5986 19.1857 6.5986 19.0994 6.64003 19.0563C6.79194 18.9414 6.94385 18.812 7.09575 18.697C7.12337 18.6683 7.1648 18.6683 7.19242 18.6827C11.943 20.939 17.0665 20.939 21.7619 18.6827C21.7895 18.6683 21.8309 18.6683 21.8585 18.697C22.0104 18.8264 22.1624 18.9414 22.3143 19.0707C22.3695 19.1138 22.3695 19.2 22.3005 19.2288C21.5823 19.6743 20.8228 20.0336 20.0356 20.3497C19.9804 20.3641 19.9666 20.436 19.9804 20.4791C20.4223 21.3557 20.9195 22.1893 21.4581 22.9797C21.4995 22.994 21.5409 23.0084 21.5823 22.994C23.9576 22.2324 26.3468 21.0827 28.8325 19.1857C28.8602 19.1713 28.874 19.1426 28.874 19.1138C29.4816 12.6036 27.8658 6.95575 24.5929 1.94018C24.5791 1.92581 24.5653 1.91144 24.5377 1.91144ZM9.69202 15.6791C8.2696 15.6791 7.08195 14.3138 7.08195 12.6324C7.08195 10.9509 8.24198 9.58568 9.69202 9.58568C11.1559 9.58568 12.3159 10.9653 12.3021 12.6324C12.3021 14.3138 11.1421 15.6791 9.69202 15.6791ZM19.3175 15.6791C17.8951 15.6791 16.7074 14.3138 16.7074 12.6324C16.7074 10.9509 17.8675 9.58568 19.3175 9.58568C20.7814 9.58568 21.9414 10.9653 21.9276 12.6324C21.9276 14.3138 20.7814 15.6791 19.3175 15.6791Z" fill="#565F6F"/>
</svg>
